<svg width="383" height="73" viewBox="0 0 383 73" fill="none" xmlns="http://www.w3.org/2000/svg">
<path d="M46.2727 1.18182H54.7273V47.4091C54.7273 52.1818 53.6023 56.4432 51.3523 60.1932C49.125 63.9205 45.9773 66.8636 41.9091 69.0227C37.8409 71.1591 33.0682 72.2273 27.5909 72.2273C22.1136 72.2273 17.3409 71.1591 13.2727 69.0227C9.20455 66.8636 6.04546 63.9205 3.79545 60.1932C1.56818 56.4432 0.454546 52.1818 0.454546 47.4091V1.18182H8.90909V46.7273C8.90909 50.1364 9.65909 53.1705 11.1591 55.8295C12.6591 58.4659 14.7955 60.5455 17.5682 62.0682C20.3636 63.5682 23.7045 64.3182 27.5909 64.3182C31.4773 64.3182 34.8182 63.5682 37.6136 62.0682C40.4091 60.5455 42.5455 58.4659 44.0227 55.8295C45.5227 53.1705 46.2727 50.1364 46.2727 46.7273V1.18182ZM78.5653 39.5V71H70.5199V18.6364H78.2926V26.8182H78.9744C80.2017 24.1591 82.0653 22.0227 84.5653 20.4091C87.0653 18.7727 90.2926 17.9545 94.2472 17.9545C97.7926 17.9545 100.895 18.6818 103.554 20.1364C106.213 21.5682 108.281 23.75 109.759 26.6818C111.236 29.5909 111.974 33.2727 111.974 37.7273V71H103.929V38.2727C103.929 34.1591 102.861 30.9545 100.724 28.6591C98.5881 26.3409 95.6563 25.1818 91.929 25.1818C89.3608 25.1818 87.0653 25.7386 85.0426 26.8523C83.0426 27.9659 81.4631 29.5909 80.304 31.7273C79.1449 33.8636 78.5653 36.4545 78.5653 39.5ZM136.222 1.18182V71H127.767V1.18182H136.222ZM209.355 23H200.901C200.401 20.5682 199.526 18.4318 198.276 16.5909C197.048 14.75 195.548 13.2045 193.776 11.9545C192.026 10.6818 190.082 9.72727 187.946 9.09091C185.81 8.45454 183.582 8.13636 181.264 8.13636C177.037 8.13636 173.207 9.20454 169.776 11.3409C166.366 13.4773 163.651 16.625 161.628 20.7841C159.628 24.9432 158.628 30.0455 158.628 36.0909C158.628 42.1364 159.628 47.2386 161.628 51.3977C163.651 55.5568 166.366 58.7045 169.776 60.8409C173.207 62.9773 177.037 64.0455 181.264 64.0455C183.582 64.0455 185.81 63.7273 187.946 63.0909C190.082 62.4545 192.026 61.5114 193.776 60.2614C195.548 58.9886 197.048 57.4318 198.276 55.5909C199.526 53.7273 200.401 51.5909 200.901 49.1818H209.355C208.719 52.75 207.56 55.9432 205.878 58.7614C204.196 61.5795 202.105 63.9773 199.605 65.9545C197.105 67.9091 194.298 69.3977 191.185 70.4205C188.094 71.4432 184.787 71.9545 181.264 71.9545C175.31 71.9545 170.014 70.5 165.378 67.5909C160.741 64.6818 157.094 60.5455 154.435 55.1818C151.776 49.8182 150.446 43.4545 150.446 36.0909C150.446 28.7273 151.776 22.3636 154.435 17C157.094 11.6364 160.741 7.5 165.378 4.59091C170.014 1.68182 175.31 0.22727 181.264 0.22727C184.787 0.22727 188.094 0.738634 191.185 1.76136C194.298 2.78409 197.105 4.28409 199.605 6.26136C202.105 8.21591 204.196 10.6023 205.878 13.4205C207.56 16.2159 208.719 19.4091 209.355 23ZM243.199 72.0909C238.472 72.0909 234.324 70.9659 230.756 68.7159C227.21 66.4659 224.438 63.3182 222.438 59.2727C220.46 55.2273 219.472 50.5 219.472 45.0909C219.472 39.6364 220.46 34.875 222.438 30.8068C224.438 26.7386 227.21 23.5795 230.756 21.3295C234.324 19.0795 238.472 17.9545 243.199 17.9545C247.926 17.9545 252.063 19.0795 255.608 21.3295C259.176 23.5795 261.949 26.7386 263.926 30.8068C265.926 34.875 266.926 39.6364 266.926 45.0909C266.926 50.5 265.926 55.2273 263.926 59.2727C261.949 63.3182 259.176 66.4659 255.608 68.7159C252.063 70.9659 247.926 72.0909 243.199 72.0909ZM243.199 64.8636C246.79 64.8636 249.744 63.9432 252.062 62.1023C254.381 60.2614 256.097 57.8409 257.21 54.8409C258.324 51.8409 258.881 48.5909 258.881 45.0909C258.881 41.5909 258.324 38.3295 257.21 35.3068C256.097 32.2841 254.381 29.8409 252.062 27.9773C249.744 26.1136 246.79 25.1818 243.199 25.1818C239.608 25.1818 236.653 26.1136 234.335 27.9773C232.017 29.8409 230.301 32.2841 229.188 35.3068C228.074 38.3295 227.517 41.5909 227.517 45.0909C227.517 48.5909 228.074 51.8409 229.188 54.8409C230.301 57.8409 232.017 60.2614 234.335 62.1023C236.653 63.9432 239.608 64.8636 243.199 64.8636ZM298.98 72.0909C294.616 72.0909 290.764 70.9886 287.423 68.7841C284.082 66.5568 281.469 63.4205 279.582 59.375C277.696 55.3068 276.753 50.5 276.753 44.9545C276.753 39.4545 277.696 34.6818 279.582 30.6364C281.469 26.5909 284.094 23.4659 287.457 21.2614C290.821 19.0568 294.707 17.9545 299.116 17.9545C302.526 17.9545 305.219 18.5227 307.196 19.6591C309.196 20.7727 310.719 22.0455 311.764 23.4773C312.832 24.8864 313.662 26.0455 314.253 26.9545H314.935V1.18182H322.98V71H315.207V62.9545H314.253C313.662 63.9091 312.821 65.1136 311.73 66.5682C310.639 68 309.082 69.2841 307.06 70.4205C305.037 71.5341 302.344 72.0909 298.98 72.0909ZM300.071 64.8636C303.298 64.8636 306.026 64.0227 308.253 62.3409C310.48 60.6364 312.173 58.2841 313.332 55.2841C314.491 52.2614 315.071 48.7727 315.071 44.8182C315.071 40.9091 314.503 37.4886 313.366 34.5568C312.23 31.6023 310.548 29.3068 308.321 27.6705C306.094 26.0114 303.344 25.1818 300.071 25.1818C296.662 25.1818 293.821 26.0568 291.548 27.8068C289.298 29.5341 287.605 31.8864 286.469 34.8636C285.355 37.8182 284.798 41.1364 284.798 44.8182C284.798 48.5455 285.366 51.9318 286.503 54.9773C287.662 58 289.366 60.4091 291.616 62.2045C293.889 63.9773 296.707 64.8636 300.071 64.8636ZM360.787 72.0909C355.741 72.0909 351.389 70.9773 347.73 68.75C344.094 66.5 341.287 63.3636 339.31 59.3409C337.355 55.2955 336.378 50.5909 336.378 45.2273C336.378 39.8636 337.355 35.1364 339.31 31.0455C341.287 26.9318 344.037 23.7273 347.56 21.4318C351.105 19.1136 355.241 17.9545 359.969 17.9545C362.696 17.9545 365.389 18.4091 368.048 19.3182C370.707 20.2273 373.128 21.7045 375.31 23.75C377.491 25.7727 379.23 28.4545 380.526 31.7955C381.821 35.1364 382.469 39.25 382.469 44.1364V47.5455H342.105V40.5909H374.287C374.287 37.6364 373.696 35 372.514 32.6818C371.355 30.3636 369.696 28.5341 367.537 27.1932C365.401 25.8523 362.878 25.1818 359.969 25.1818C356.764 25.1818 353.991 25.9773 351.651 27.5682C349.332 29.1364 347.548 31.1818 346.298 33.7045C345.048 36.2273 344.423 38.9318 344.423 41.8182V46.4545C344.423 50.4091 345.105 53.7614 346.469 56.5114C347.855 59.2386 349.776 61.3182 352.23 62.75C354.685 64.1591 357.537 64.8636 360.787 64.8636C362.901 64.8636 364.81 64.5682 366.514 63.9773C368.241 63.3636 369.73 62.4545 370.98 61.25C372.23 60.0227 373.196 58.5 373.878 56.6818L381.651 58.8636C380.832 61.5 379.457 63.8182 377.526 65.8182C375.594 67.7955 373.207 69.3409 370.366 70.4545C367.526 71.5455 364.332 72.0909 360.787 72.0909Z" fill="url(#paint0_diamond_109_193)"/>
<defs>
<radialGradient id="paint0_diamond_109_193" cx="0" cy="0" r="1" gradientUnits="userSpaceOnUse" gradientTransform="translate(-21.2886 35.9999) rotate(0.176512) scale(427.895 1437.36)">
<stop stop-color="#6465A6"/>
<stop offset="1" stop-color="#96C39D"/>
</radialGradient>
</defs>
</svg>
